<svg width="90" height="90" viewBox="0 0 90 90" fill="none" xmlns="http://www.w3.org/2000/svg">
<path d="M67.5 0H22.5C16.5326 0 10.8097 2.37053 6.5901 6.5901C2.37053 10.8097 0 16.5326 0 22.5L0 67.5C0 73.4674 2.37053 79.1903 6.5901 83.4099C10.8097 87.6295 16.5326 90 22.5 90H67.5C73.4674 90 79.1903 87.6295 83.4099 83.4099C87.6295 79.1903 90 73.4674 90 67.5V22.5C90 16.5326 87.6295 10.8097 83.4099 6.5901C79.1903 2.37053 73.4674 0 67.5 0V0ZM68.5575 62.1315C68.5575 63.1018 68.1721 64.0323 67.4859 64.7184C66.7999 65.4045 65.8693 65.79 64.899 65.79H25.101C24.1307 65.79 23.2002 65.4045 22.514 64.7184C21.8279 64.0323 21.4425 63.1018 21.4425 62.1315V27.8685C21.4425 26.8982 21.8279 25.9677 22.514 25.2815C23.2002 24.5954 24.1307 24.21 25.101 24.21H64.899C65.8693 24.21 66.7999 24.5954 67.4859 25.2815C68.1721 25.9677 68.5575 26.8982 68.5575 27.8685V62.1315Z" fill="white"/>
</svg>
