<svg width="90" height="90" viewBox="0 0 90 90" fill="none" xmlns="http://www.w3.org/2000/svg">
<path d="M67.5 0H22.5C16.5326 0 10.8097 2.37053 6.5901 6.5901C2.37053 10.8097 0 16.5326 0 22.5L0 67.5C0 73.4674 2.37053 79.1903 6.5901 83.4099C10.8097 87.6295 16.5326 90 22.5 90H67.5C73.4674 90 79.1903 87.6295 83.4099 83.4099C87.6295 79.1903 90 73.4674 90 67.5V22.5C90 16.5326 87.6295 10.8097 83.4099 6.5901C79.1903 2.37053 73.4674 0 67.5 0V0ZM33.174 65.7H23.886V37.764H33.174V65.7ZM28.53 33.948H28.4715C25.353 33.948 23.337 31.806 23.337 29.124C23.337 26.442 25.416 24.3 28.593 24.3C31.77 24.3 33.723 26.3835 33.786 29.1285C33.849 31.8735 31.77 33.948 28.53 33.948ZM66.663 65.7H57.375V50.76C57.375 47.0025 56.025 44.46 52.6725 44.46C50.103 44.46 48.5775 46.188 47.907 47.8575C47.6701 48.5829 47.5664 49.3452 47.601 50.1075V65.7H38.313V37.764H47.601V41.814C47.601 41.814 50.958 37.1025 55.971 37.1025C62.082 37.1025 66.663 41.0985 66.663 49.7025V65.7Z" fill="white"/>
</svg>
